# xmcd
#
# Track frame offsets:
#	150
#	12065
#	25110
#	41922
#	57290
#	71035
#	86115
#	99052
#	118650
#	133367
#	149592
#	166810
#	187735
#	207352
#	223322
#	239555
#	254442
#	269942
#
# Disc length: 3844
#
# Revision: 2
# Processed by: cddbd v1.5.1PL0 Copyright (c) Steve Scherf et al.
# Submitted via: audiograbber 1.80
# Normalized: r1:TDELIM( - )
#
DISCID=180f0212
DTITLE=Various Artist - The Cream of Country 2001
DYEAR=1900
DGENRE=
TTITLE0=Alan Jackson - Little Bitty
TTITLE1=Leanne Rines - Hurt Me
TTITLE2=Trisha Yearwood - Believe me baby I lied
TTITLE3=Vince Gill - You and You Alone
TTITLE4=George Strait - Round About Way
TTITLE5=Tim McGraw - Can't Be Really Gone
TTITLE6=Sawyer Brown - Six Days on the Road
TTITLE7=Patty Loveless - The Trouble with the Truth
TTITLE8=Brooks and Dun - Honky Tonk Truth
TTITLE9=The Kinleys - Please
TTITLE10=Collin Raye - On the Verge
TTITLE11=Clint Black and Martian McBride - Still Holding On
TTITLE12=The Mavericks - All You Ever Do is Bring Me Down
TTITLE13=Lee Ann Womack - The Fool
TTITLE14=Tracy Lawrence - Better Man Better Off
TTITLE15=Pam Tillis - All the Good Ones Are Gone
TTITLE16=Thrasher Shiver - Closer
TTITLE17=Diamond Rio - How Your Love Makes Me Feel
EXTD=
EXTT0=
EXTT1=
EXTT2=
EXTT3=
EXTT4=
EXTT5=
EXTT6=
EXTT7=
EXTT8=
EXTT9=
EXTT10=
EXTT11=
EXTT12=
EXTT13=
EXTT14=
EXTT15=
EXTT16=
EXTT17=
PLAYORDER=
